<svg width="440" height="45" viewBox="0 0 440 45" fill="none" xmlns="http://www.w3.org/2000/svg">
<path d="M9.16 36.04H31.496V27.144H9.16V36.04ZM9.16 18.184H31.496V9.16H9.16V18.184ZM35.976 45H0.2V0.199997H35.976L40.392 4.744V18.184L35.976 22.664L40.392 27.144V40.584L35.976 45ZM55.0825 22.664H77.4185V9.16H63.9785L55.0825 18.184V22.664ZM55.0825 45H46.1225V13.704L59.4985 0.199997H86.3145V45H77.4185V31.624H55.0825V45ZM101.66 45H92.7V0.199997H101.66L117.276 21.896L133.148 0.199997H141.788V45H132.828V14.792L121.116 32.008H113.628L101.66 14.792V45ZM157.16 22.664H179.496V9.16H157.16V22.664ZM157.16 45H148.2V0.199997H183.976L188.392 4.744V27.144L183.976 31.624H157.16V45ZM232.154 45H194.138V0.199997H232.154V9.16H203.098V18.184H229.914V27.144H203.098V36.04H232.154V45ZM246.848 22.664H269.184V9.16H246.848V22.664ZM278.08 45H269.184V40.584L264.704 36.04L260.224 31.624H246.848V45H237.888V0.199997H273.664L278.08 4.744V27.144L273.664 31.624L278.08 36.04V45ZM348.091 45H310.075V0.199997H348.091V9.16H319.035V18.184H345.851V27.144H319.035V36.04H348.091V45ZM362.785 45H353.825V0.199997H362.785V18.184H376.161L385.121 9.224V0.199997H394.017V13.704L385.121 22.664L394.017 31.624V45H385.121V36.04L376.161 27.144H362.785V45ZM408.723 36.04H431.059V27.144H408.723V36.04ZM408.723 18.184H431.059V9.16H408.723V18.184ZM435.539 45H399.763V0.199997H435.539L439.955 4.744V18.184L435.539 22.664L439.955 27.144V40.584L435.539 45Z" fill="black"/>
</svg>
