<svg width="46" height="47" viewBox="0 0 46 47" fill="none" xmlns="http://www.w3.org/2000/svg">
<path d="M21.3358 0.834119C33.934 -0.0089227 44.8307 9.52025 45.6737 22.1181C46.5168 34.7164 36.9874 45.6125 24.3892 46.4559C11.7906 47.299 0.894354 37.7698 0.0512937 25.1715C-0.533904 16.4329 3.92519 8.12783 11.5328 3.78774C14.5355 2.07566 17.8868 1.06555 21.3358 0.834119ZM22.0263 2.77763C10.5009 3.23581 1.52941 12.9504 1.98802 24.4751C2.44621 36.0002 12.1606 44.9715 23.686 44.5133C35.2109 44.0547 44.1824 34.3405 43.7242 22.8154C43.445 15.7966 39.6564 9.38856 33.6407 5.76109C30.144 3.64965 26.1035 2.61184 22.022 2.77763H22.0263Z" fill="black"/>
<path d="M17.7833 6.03579C19.9753 5.28769 22.2829 4.96905 24.5875 5.09633C24.8295 5.08464 25.0707 5.1275 25.2951 5.22188C27.8246 7.30124 29.8265 9.98626 31.1279 13.0449C32.5377 16.5742 33.0582 20.416 32.6395 24.2102C32.3815 26.9701 31.743 29.6772 30.7427 32.2497H32.5432C32.719 31.7778 32.8781 31.3016 33.0624 30.834C35.1585 31.1094 37.103 32.1086 38.5811 33.6697C37.1085 35.2412 35.1589 36.2422 33.0582 36.5054C32.8865 36.0422 32.7148 35.5833 32.5557 35.12C27.037 35.12 21.5141 35.12 15.9954 35.12C15.719 35.1391 15.4536 35.2382 15.2291 35.4058C14.622 35.7218 14.0232 36.0508 13.4161 36.3669C13.1937 36.4729 12.9484 36.5175 12.7042 36.4967C11.9924 36.4967 11.2806 36.4967 10.5646 36.4967C9.0618 34.8399 7.84542 32.929 6.96779 30.847H11.8459C12.193 30.8102 12.5439 30.8483 12.8759 30.9596C13.6853 31.3202 14.4951 31.6856 15.3045 32.0549C15.9158 32.4272 16.6486 32.2064 17.3227 32.2627C17.2193 30.4738 16.7193 28.733 15.8614 27.1758C14.9494 25.67 13.6794 24.4314 12.1725 23.5781C10.1526 22.4551 7.97356 21.6702 5.71582 21.2533C6.01688 18.7864 6.8003 16.4092 8.01878 14.2658C9.6074 14.6394 11.1696 15.1225 12.6959 15.7118C14.3331 16.3144 15.8827 17.1461 17.3018 18.1838L17.7582 17.9544C16.8412 16.8963 15.8082 15.9521 14.6806 15.1403C13.0765 13.9307 11.3982 12.8302 9.65596 11.8457C11.1202 9.99579 12.9195 8.45933 14.9528 7.32159C16.3442 7.90865 17.6447 8.70393 18.8134 9.68105C20.59 11.1547 22.2389 12.786 23.7417 14.5558L24.3279 14.3957C22.8205 11.1314 20.4212 8.3866 17.7833 6.03579ZM25.94 25.6259C24.7722 26.0103 24.1265 27.3004 24.4983 28.5083C24.8701 29.7158 26.1179 30.3833 27.2861 29.9989C28.454 29.6144 29.0992 28.3239 28.7278 27.1164C28.5884 26.664 28.3166 26.267 27.9498 25.9809C27.3745 25.5336 26.6262 25.4016 25.94 25.6259Z" fill="black"/>
</svg>
