<svg width="105" height="38" viewBox="0 0 105 38" fill="none" xmlns="http://www.w3.org/2000/svg">
<path d="M18.4355 3C14.249 3.13995 10.285 4.92314 7.39808 7.96518C4.51112 11.0072 2.9324 15.0645 3.00222 19.2623C3.07204 23.4602 4.78483 27.4624 7.77135 30.4063C10.7579 33.3502 14.7789 35 18.9677 35C23.1566 35 27.1776 33.3502 30.1641 30.4063C33.1507 27.4624 34.8634 23.4602 34.9333 19.2623C35.0031 15.0645 33.4244 11.0072 30.5374 7.96518C27.6505 4.92314 23.6865 3.13995 19.5 3H18.4355ZM40.7903 3C36.6038 3.13995 32.6399 4.92314 29.7529 7.96518C26.866 11.0072 25.2872 15.0645 25.3571 19.2623C25.4269 23.4602 27.1397 27.4624 30.1262 30.4063C33.1127 33.3502 37.1338 35 41.3226 35C45.5114 35 49.5325 33.3502 52.519 30.4063C55.5055 27.4624 57.2183 23.4602 57.2881 19.2623C57.3579 15.0645 55.7792 11.0072 52.8922 7.96518C50.0053 4.92314 46.0413 3.13995 41.8548 3H40.7903ZM63.1452 3C58.9587 3.13995 54.9947 4.92314 52.1078 7.96518C49.2208 11.0072 47.6421 15.0645 47.7119 19.2623C47.7817 23.4602 49.4945 27.4624 52.481 30.4063C55.4675 33.3502 59.4886 35 63.6774 35C67.8662 35 71.8873 33.3502 74.8738 30.4063C77.8603 27.4624 79.5731 23.4602 79.6429 19.2623C79.7128 15.0645 78.134 11.0072 75.2471 7.96518C72.3601 4.92314 68.3962 3.13995 64.2097 3H63.1452ZM85.5 3C81.3135 3.13995 77.3495 4.92314 74.4626 7.96518C71.5756 11.0072 69.9969 15.0645 70.0667 19.2623C70.1366 23.4602 71.8493 27.4624 74.8359 30.4063C77.8224 33.3502 81.8434 35 86.0323 35C90.2211 35 94.2421 33.3502 97.2287 30.4063C100.215 27.4624 101.928 23.4602 101.998 19.2623C102.068 15.0645 100.489 11.0072 97.6019 7.96518C94.715 4.92314 90.751 3.13995 86.5645 3H85.5Z" stroke="black" stroke-width="4.11867"/>
</svg>
