<svg width="46" height="29" viewBox="0 0 46 29" fill="none" xmlns="http://www.w3.org/2000/svg">
<path d="M5.30989 6.77291H9.3185L8.56021 4.58416H22.1617V6.76682H22.6151V3.82921H4.06767L5.30989 6.77291ZM5.69474 9.65877H22.6113V7.47002H5.47564L5.69474 9.65877ZM9.99105 13.3239H6.06626L5.76143 10.3376H22.6151V13.3239H22.1598V11.0378H9.84815L9.99105 13.3239ZM16.2764 15.4305H22.6132V16.9982H16.2764V15.4305ZM23.1143 3.82921H29.5102V8.22497H23.1143V3.82921ZM6.97887 20.7821C7.08175 21.0439 7.27418 21.3483 7.91244 21.6375C8.1906 21.7501 8.49353 21.8628 8.89363 22.0089L9.04605 22.0667H15.8325V20.5142H6.88933C6.91409 20.6055 6.94267 20.6969 6.97697 20.7821H6.97887ZM15.8325 18.4107H6.5902L6.13676 14.0271H15.8325V18.4107ZM16.2745 24.5629C18.6427 25.3331 20.9557 26.0485 22.617 26.4808V19.12H16.2745V24.5629ZM39.6632 13.3239H29.9465V8.92513H40.1071L39.6632 13.3239ZM29.9465 5.22648V6.78813L40.3967 6.78204L41.0521 5.22648H29.9465ZM0 0.355835L3.07886 7.56743C3.41608 10.6299 4.29821 18.5233 4.39918 19.2874L4.41062 19.3848C4.69259 21.534 4.86597 22.8521 7.43994 23.8689C10.917 25.2387 18.8656 27.8963 22.8609 28.9343C26.8562 27.8963 34.8086 25.2357 38.2876 23.8689C40.8596 22.8521 41.0311 21.534 41.315 19.3848L41.3264 19.2874C41.4274 18.5172 42.3095 10.6299 42.6468 7.56743L45.7256 0.355835H0ZM40.8749 7.46393L40.3471 12.6907C40.0423 15.7166 39.8384 17.7349 39.7375 18.6299L39.7241 18.7364L39.7013 18.9495C39.4593 21.0561 39.3526 21.9998 37.9675 22.6177C35.0792 23.7532 26.7114 26.6056 22.8647 27.5675C19.0199 26.6056 10.6522 23.7501 7.76573 22.6177C6.38063 21.9998 6.27393 21.0561 6.03197 18.9465L5.99577 18.6299C5.89479 17.7532 5.69855 15.7988 5.40515 12.8764L4.85835 7.46089L2.43108 1.70744H43.2983L40.8749 7.46393ZM23.5677 16.9982H23.1143V14.0271H39.5946L39.2897 17.0043H35.4716C35.5307 16.4838 35.6431 14.9982 35.6603 14.7821H23.5677V16.9982ZM23.1143 19.8658H38.9697L39.225 17.6862H23.1143V19.8658ZM23.1143 10.3407H29.5121V11.9114H23.1143V10.3407ZM23.1143 20.5142V26.4777C27.1439 25.3818 34.9706 22.8095 37.8189 21.6314C38.4629 21.3666 38.6534 21.0439 38.7563 20.7821C38.7909 20.6981 38.8197 20.6083 38.842 20.5142H23.1143ZM27.4887 24.4168L26.698 24.6664C26.2979 24.7943 25.4311 25.047 24.669 25.2722L23.5696 25.5949V21.2661H34.7724C34.258 22.2707 33.2254 22.5964 27.4887 24.4168Z" fill="black"/>
</svg>
