<svg width="46" height="47" viewBox="0 0 46 47" fill="none" xmlns="http://www.w3.org/2000/svg">
<path d="M22.8628 0.966522C10.2368 0.966522 0 11.2033 0 23.8293C0 36.4553 10.2368 46.6921 22.8628 46.6921C35.4888 46.6921 45.7256 36.4553 45.7256 23.8293C45.7256 11.2033 35.4888 0.966522 22.8628 0.966522ZM22.8628 2.4526C34.6676 2.4526 44.2376 12.0226 44.2376 23.8293C44.2376 35.6342 34.6695 45.2041 22.8628 45.2041C11.0561 45.2041 1.48799 35.6342 1.48799 23.8293C1.48799 12.0245 11.058 2.4526 22.8628 2.4526ZM21.5711 3.6529C20.9423 3.67957 20.3136 3.73292 19.6811 3.80151L19.4772 9.41052C19.9258 9.33461 20.377 9.27487 20.8299 9.23143L20.9633 5.44382L20.9385 5.1828L21.0204 5.43048L22.2855 8.26738H23.4401L24.7052 5.43239L24.7814 5.1828L24.7623 5.44382L24.8957 9.23143C25.3377 9.27334 25.7969 9.33431 26.2484 9.41052L26.0407 3.80151C25.4126 3.73073 24.7822 3.68116 24.1507 3.6529L22.9066 6.74891L22.8628 6.97753L22.819 6.74891L21.5711 3.6529ZM34.3285 7.12805L31.3887 11.754C31.7602 12.0397 32.2499 12.4608 32.5643 12.7485L35.3326 11.3119L35.5078 11.1805L35.3764 11.3596L33.9436 14.1279C34.2542 14.4613 34.7019 15.0005 34.9534 15.3282L39.5831 12.3865C39.2992 12.0192 39.007 11.6584 38.7067 11.3043L35.7746 13.2362L35.5745 13.4115L35.7231 13.1924L37.0187 10.6089L36.1042 9.6944L33.5207 10.99L33.3016 11.1386L33.475 10.9366L35.4145 8.00446C35.0715 7.71486 34.7457 7.45003 34.3285 7.12805ZM10.4788 8.17783C9.7929 8.24833 9.26325 8.71701 7.82479 10.3212C7.326 10.8865 6.84501 11.4672 6.38253 12.0626L10.334 15.8102C11.6429 14.3622 12.1744 13.8249 13.2071 12.7371C13.9368 11.9654 14.3502 11.0795 13.6186 10.2279C13.2223 9.7668 12.5555 9.66582 11.9992 9.89445L11.9458 9.9135L11.9649 9.86396C12.0336 9.61116 12.0263 9.34372 11.944 9.09502C11.8616 8.84632 11.7079 8.62738 11.5019 8.46552C11.3587 8.35263 11.1946 8.26925 11.019 8.22019C10.8433 8.17114 10.6597 8.15548 10.4788 8.17783ZM10.4902 9.34955C10.7493 9.27906 11.018 9.46386 11.077 9.7306C11.138 9.99733 10.9703 10.2488 10.7836 10.4584C10.3645 10.9347 8.81933 12.5503 8.81933 12.5503L8.05342 11.8206C8.84791 10.849 9.69383 9.96494 10.0768 9.61438C10.1917 9.49461 10.3334 9.40384 10.4902 9.34955ZM22.8628 10.2698C19.5065 10.2683 16.2691 11.5121 13.7772 13.7604C11.2853 16.0088 9.71626 19.1017 9.37375 22.4404V22.4442C9.15846 24.5625 9.44466 26.7016 10.2092 28.6888C10.9738 30.6759 12.1952 32.4552 13.7748 33.8829C15.3543 35.3106 17.2477 36.3465 19.3018 36.9069C21.3558 37.4673 23.513 37.5365 25.5987 37.1088C28.656 36.4804 31.4026 34.8157 33.3743 32.3961C35.3461 29.9766 36.4221 26.9505 36.4204 23.8293C36.4169 20.2349 34.9873 16.7887 32.4455 14.2472C29.9037 11.7057 26.4573 10.2766 22.8628 10.2736V10.2698ZM12.3135 10.7308C12.4031 10.7308 12.4964 10.7556 12.5803 10.8128C12.7479 10.9252 12.8241 11.1176 12.7822 11.3081C12.7327 11.5349 12.5441 11.7482 12.3916 11.914L10.4007 14.0479L9.60047 13.2858C9.60047 13.2858 11.0999 11.7006 11.5914 11.1919C11.7858 10.99 11.9115 10.868 12.0449 10.8013C12.1275 10.7584 12.2205 10.7344 12.3135 10.7308ZM22.8628 12.0512C24.41 12.0494 25.9424 12.3529 27.3722 12.9442C28.802 13.5354 30.1011 14.4029 31.1951 15.497C32.2892 16.5911 33.1567 17.8902 33.748 19.3199C34.3393 20.7497 34.6427 22.2821 34.641 23.8293H22.8628V35.6075C21.3156 35.6092 19.7832 35.3058 18.3534 34.7145C16.9236 34.1232 15.6245 33.2557 14.5305 32.1617C13.4364 31.0676 12.5689 29.7685 11.9776 28.3387C11.3863 26.9089 11.0829 25.3765 11.0847 23.8293H22.8628V12.0512Z" fill="black"/>
</svg>
