<svg width="46" height="25" viewBox="0 0 46 25" fill="none" xmlns="http://www.w3.org/2000/svg">
<path d="M26.4472 13.0319L24.4539 16.9463H24.4124L24.3116 13.0319H22.6444L22.5793 13.1728L22.7223 13.26C22.8603 13.3572 22.8989 13.4559 22.9168 13.7276L23.1427 18.4777H25.0001L27.9979 13.0319H26.4472ZM20.5139 15.851C20.3273 16.3865 20.1807 16.7311 19.9641 16.9584C19.7939 17.1371 19.5694 17.2651 19.0525 17.2651C18.6471 17.2651 18.4212 17.0993 18.4212 16.7854C18.4184 16.5831 18.4734 16.2756 18.69 15.6772C18.8774 15.1425 19.0239 14.7979 19.2413 14.5705C19.4093 14.3918 19.6345 14.2631 20.1521 14.2631C20.5575 14.2631 20.7827 14.4289 20.782 14.7414C20.7863 14.9466 20.7312 15.254 20.5139 15.851ZM20.4274 12.9647H20.2543C19.2284 12.9647 18.6421 13.2414 18.161 13.7526C17.5626 14.3853 17.0006 16.0962 17.0114 17.0013C17.0228 17.9243 17.6198 18.5642 18.8745 18.5642H19.0582C20.087 18.5642 20.6733 18.2875 21.1544 17.7763C21.7521 17.1421 22.3026 15.432 22.2919 14.5276C22.2798 13.6053 21.6828 12.9647 20.4274 12.9647ZM15.3899 15.0088C15.2962 15.2411 15.1933 15.2969 15.0581 15.3519C14.9673 15.3877 14.775 15.4005 14.5898 15.4005H13.8728L14.2631 14.2752H15.1296C15.3891 14.2752 15.495 14.4104 15.4985 14.5641C15.5 14.662 15.4549 14.8415 15.3899 15.0088ZM15.2612 13.0319H12.9097L12.8625 13.1728L12.9576 13.2664C13.0577 13.3651 13.0541 13.4824 12.9662 13.734L11.3233 18.4777H12.8246L13.4667 16.5945L13.975 16.5952L14.5398 18.4777H16.0483L15.3391 16.5509C15.7509 16.4844 15.9575 16.3664 16.1641 16.1827C16.4473 15.9239 16.6432 15.5607 16.8055 15.0259C17.0428 14.2502 16.8991 13.8069 16.7468 13.5796C16.5373 13.2664 16.0962 13.0319 15.2612 13.0319ZM31.0128 16.2935L31.4289 15.1546H29.515L29.8117 14.2852H31.885L32.3404 13.0284H28.4261L28.3718 13.1885L28.4655 13.2807C28.5663 13.3787 28.562 13.4952 28.4747 13.7483L26.8447 18.4755H30.5023L30.9442 17.2101H28.8093L29.1239 16.2935H31.0128ZM35.4047 15.0088C35.311 15.2411 35.2067 15.2969 35.0737 15.3519C34.9807 15.3877 34.7913 15.4005 34.6061 15.4005H33.8897L34.2765 14.2752H35.1445C35.4025 14.2752 35.5098 14.4104 35.5119 14.5641C35.5148 14.662 35.4683 14.8415 35.4047 15.0088ZM35.2739 13.0319H32.9231L32.8774 13.1728L32.9717 13.2664C33.0725 13.3651 33.0675 13.4824 32.981 13.734L31.3367 18.4777H32.8402L33.4815 16.5952H33.9891L34.5546 18.4777H36.0617L35.3539 16.5509C35.765 16.4844 35.9716 16.3664 36.1775 16.1827C36.4614 15.9239 36.658 15.5607 36.8203 15.0259C37.0576 14.2502 36.9139 13.8069 36.7624 13.5796C36.5529 13.2664 36.1111 13.0319 35.2739 13.0319ZM38.3567 20.3401C34.2322 22.4713 28.7307 23.6453 22.8632 23.6453C16.9963 23.6453 11.4956 22.4713 7.37035 20.3401C3.40313 18.2896 1.21683 15.6193 1.21683 12.8225C1.21683 10.0235 3.40313 7.35315 7.37035 5.30412C11.4956 3.17359 16.9963 1.99823 22.8632 1.99823C28.7307 1.99823 34.2322 3.17359 38.3567 5.30412C42.3246 7.35315 44.5088 10.0235 44.5088 12.8225C44.5088 15.6193 42.3246 18.2896 38.3567 20.3401ZM38.9151 4.22313C34.6197 2.00395 28.9194 0.782108 22.8632 0.782108C16.8069 0.782108 11.1059 2.00395 6.81198 4.22313C4.26821 5.53791 0 8.4034 0 12.8225C0 17.2394 4.26821 20.1056 6.81198 21.4204C11.1052 23.6396 16.8055 24.8614 22.8632 24.8614C28.9202 24.8614 34.6204 23.6396 38.9151 21.4204C41.4588 20.1056 45.7256 17.2401 45.7256 12.8225C45.7256 8.40269 41.4588 5.53791 38.9151 4.22313ZM37.779 19.2226C33.3414 21.5147 27.8213 22.3863 22.8632 22.3863C17.9043 22.3863 12.3857 21.5147 7.94659 19.2226C5.598 18.0079 2.47585 15.7702 2.47585 12.8225C2.47585 9.8719 5.59729 7.63627 7.94659 6.42229C12.3857 4.13019 17.9043 3.25867 22.8632 3.25867C27.8213 3.25867 33.3414 4.12876 37.779 6.42229C40.1298 7.63627 43.2505 9.8719 43.2505 12.8225C43.2505 15.7716 40.129 18.0079 37.779 19.2226ZM38.0092 5.97545C33.5037 3.64546 27.8935 2.75392 22.8632 2.75392C17.8321 2.75392 12.2234 3.64617 7.71566 5.97545C5.18477 7.28237 1.97253 9.64168 1.97253 12.8225C1.97253 16.0004 5.18477 18.3611 7.71566 19.6695C12.2234 21.9973 17.8335 22.8896 22.8632 22.8896C27.8935 22.8896 33.5037 21.9988 38.0092 19.6695C40.5416 18.3611 43.7538 16.0004 43.7538 12.8225C43.7538 9.64168 40.5423 7.28237 38.0092 5.97545ZM11.4984 13.734L7.38965 15.0853L6.88776 16.4622H10.5111L10.983 15.1646H8.47136L11.3226 14.1994L11.4984 13.734ZM27.8477 7.70061H28.4433C28.8487 7.70061 29.0724 7.83645 29.0774 8.15031C29.081 8.35264 29.0267 8.63004 28.8165 9.22702C28.6306 9.76108 28.4819 10.0706 28.271 10.2973C28.1015 10.476 27.8763 10.5554 27.3594 10.5554H26.8618L27.8477 7.70061ZM26.5423 7.11078L24.9165 11.8544H27.3151C28.3432 11.8544 28.9302 11.6264 29.4063 11.1159C30.004 10.4839 30.5502 8.83952 30.5324 7.9344C30.5145 7.01069 29.9182 6.40943 28.6635 6.40943H26.4843L26.4386 6.54955L26.533 6.64178C26.6331 6.74116 26.6295 6.85841 26.5423 7.11078ZM35.5934 8.36193H31.9701L31.4982 9.65813H34.0091L31.1572 10.6262L30.9813 11.0902L35.0901 9.73891L35.5934 8.36193ZM19.3993 11.8516H20.7648L21.9559 8.32905L22.6523 11.8516H24.0192L25.8824 6.40728L24.4539 6.40943L23.4587 9.36857L22.8903 6.40943H20.965L20.9178 6.54955L21.0122 6.64178C21.1137 6.74116 21.1087 6.85841 21.0222 7.11078L19.3993 11.8516ZM9.60883 11.8544L13.3244 11.853L13.7734 10.5554H11.6135L13.0406 6.40943H11.1774L11.1309 6.54955L11.2239 6.64178C11.3254 6.74116 11.3211 6.85841 11.2339 7.11078L9.60883 11.8544ZM17.514 7.91438H17.5626L17.5883 9.55875H16.586L17.514 7.91438ZM13.7097 11.8516H15.2905L15.9754 10.6483H17.6119L17.6284 11.8516H19.0625L18.753 6.40943H16.606L16.5581 6.54955L16.6274 6.6189C16.7404 6.72972 16.6939 6.88915 16.2757 7.55262L13.7097 11.8516Z" fill="black"/>
</svg>
