<svg width="46" height="20" viewBox="0 0 46 20" fill="none" xmlns="http://www.w3.org/2000/svg">
<path d="M38.1347 10.6243C38.0976 12.6755 38.5406 13.762 40.2315 13.762C41.9196 13.762 42.1619 11.9112 42.1619 10.5028C42.1619 9.09354 41.8416 7.72544 40.0679 7.72544C38.9799 7.72544 38.1766 8.5709 38.1347 10.6243ZM34.7139 19.196V5.31112H38.1766C38.1766 5.31112 38.1766 5.51219 38.1766 5.87435C38.1766 6.62563 38.4796 6.31582 38.7237 6.02306C38.7646 5.97411 39.5363 5.02951 41.2743 5.02951C43.007 5.02951 45.7027 6.23651 45.7027 10.5028C45.7027 13.8029 44.0945 16.2172 41.3171 16.2172C39.7866 16.2172 38.9018 15.6146 38.6995 15.3714C38.4969 15.1316 38.2156 15.0898 38.2156 15.3714C38.2156 15.6537 38.2156 19.196 38.2156 19.196H34.7139Z" fill="#231F20"/>
<path d="M7.95007 0.804193H11.6931C11.6931 0.804193 11.6931 8.93287 11.6931 10.6238C11.6931 12.3128 10.9679 15.8555 5.7771 15.8555C0.585687 15.8555 0.0224609 12.5536 0.0224609 10.7037V8.8929H3.64471C3.64471 8.8929 3.64471 9.57695 3.64471 10.6628C3.64471 11.7493 4.36934 12.7549 5.73682 12.7549C7.10492 12.7549 7.95007 11.9906 7.95007 10.7037C7.95007 9.41585 7.95007 0.804193 7.95007 0.804193Z" fill="#231F20"/>
<path d="M19.5216 9.13585C19.5216 8.12867 18.9593 7.16301 17.6714 7.16301C16.4238 7.16301 15.9808 8.0475 15.9808 9.13585H19.5216ZM17.3105 4.90979C20.2499 4.90979 22.8244 6.03624 22.8244 11.228H15.8627C15.8627 12.878 16.5462 13.5623 17.7535 13.5623C18.9611 13.5623 19.3632 12.5958 19.3632 12.5958H22.785C22.785 14.0853 20.7323 16.0975 17.6327 16.0575C14.0922 16.0575 12.3613 13.4415 12.3613 10.745C12.3613 8.0475 13.8896 4.90979 17.3105 4.90979Z" fill="#231F20"/>
<path d="M30.6504 9.13585C30.6504 8.12867 30.0875 7.16301 28.7996 7.16301C27.5527 7.16301 27.1087 8.0475 27.1087 9.13585H30.6504ZM28.4393 4.90979C31.3785 4.90979 33.9523 6.03624 33.9523 11.228H26.991C26.991 12.878 27.675 13.5623 28.8833 13.5623C30.0897 13.5623 30.4924 12.5958 30.4924 12.5958H33.9142C33.9142 14.0853 31.8611 16.0975 28.7625 16.0575C25.2201 16.0575 23.4893 13.4415 23.4893 10.745C23.4893 8.0475 25.0194 4.90979 28.4393 4.90979Z" fill="#231F20"/>
<path d="M43.4102 17.5315C43.4102 16.9816 43.8578 16.5349 44.4096 16.5349C44.9595 16.5349 45.4062 16.9816 45.4062 17.5315C45.4062 18.0805 44.9595 18.53 44.4096 18.53C43.8578 18.53 43.4102 18.0805 43.4102 17.5315ZM43.2949 17.5315C43.2949 18.1468 43.7931 18.6462 44.4096 18.6462C45.0221 18.6462 45.523 18.1468 45.523 17.5315C45.523 16.9162 45.0221 16.4168 44.4096 16.4168C43.7931 16.4168 43.2949 16.9162 43.2949 17.5315Z" fill="#231F20"/>
<path d="M44.8564 18.1027L44.625 17.5562C44.6984 17.5308 44.7229 17.5128 44.7619 17.471C44.8127 17.4164 44.8446 17.3303 44.8446 17.2522C44.8446 17.0552 44.6931 16.9211 44.4735 16.9211H44.0088V18.1027H44.1467V17.5909H44.4825L44.7031 18.1027H44.8564ZM44.1429 17.471V17.0496H44.4707C44.6076 17.0496 44.6947 17.1277 44.6947 17.2485C44.6947 17.3858 44.6024 17.471 44.4515 17.471H44.1429Z" fill="#231F20"/>
</svg>
