<svg width="44" height="45" viewBox="0 0 44 45" fill="none" xmlns="http://www.w3.org/2000/svg">
<path fill-rule="evenodd" clip-rule="evenodd" d="M31.9434 3.38817C38.8588 7.02507 43.5829 14.276 43.5829 22.6341C43.5829 30.9921 38.8588 38.2659 31.9434 41.8806V39.3954C34.5881 37.8133 36.8252 35.5996 38.453 32.9795L31.9434 30.3371V26.3161L39.0852 31.8958C40.577 29.1397 41.4132 25.9995 41.4132 22.6335C41.4132 15.5403 37.6157 9.3062 31.9434 5.87221V3.38817ZM21.8861 0.925842C25.5024 0.925842 28.9147 1.8072 31.9434 3.38817V5.87335C29.1633 4.20094 25.9088 3.20755 22.4737 3.09438L24.9594 20.8725L31.9434 26.3167V30.3377L21.8404 26.2487L11.8053 30.36V26.3613L18.8345 20.8719L21.2979 3.09381C17.8171 3.20698 14.5854 4.20094 11.8053 5.87221V3.38817C14.8118 1.8072 18.2469 0.925842 21.8861 0.925842ZM31.9434 41.8806C28.9147 43.4615 25.5018 44.3646 21.8861 44.3646C18.2475 44.3646 14.8123 43.4615 11.8059 41.9029V39.3954C14.7443 41.1792 18.2017 42.1961 21.8861 42.1961C25.5476 42.1961 28.9833 41.1792 31.9434 39.3954V41.8806ZM11.8059 41.9029C4.86701 38.2659 0.143555 30.9921 0.143555 22.6341C0.143555 14.276 4.86701 7.02507 11.8059 3.38817V5.87335C6.11017 9.30678 2.31323 15.5186 2.31323 22.6341C2.31323 25.9995 3.1723 29.1854 4.6641 31.941L11.8059 26.3613V30.36L5.31912 33.0247C6.94638 35.6236 9.16122 37.8138 11.8059 39.3954V41.9029Z" fill="black"/>
</svg>
