<svg width="51" height="47" viewBox="0 0 51 47" fill="none" xmlns="http://www.w3.org/2000/svg">
<path fill-rule="evenodd" clip-rule="evenodd" d="M49.2543 44.0955C44.8204 40.2938 31.6474 29.4761 25.394 29.4761C19.1379 29.4761 5.97496 40.2865 1.53831 44.0909C1.51166 43.1922 1.48685 42.6463 1.48685 41.8459C1.48685 41.8459 1.37841 40.5245 2.54731 39.2021C12.1649 30.4878 22.2485 26.2239 22.5582 26.0934C25.5649 24.8225 25.3959 25.0615 25.3931 19.9613C25.3931 19.9613 25.5273 19.9531 25.6127 19.9623C29.8472 20.3455 41.232 31.3948 47.9697 38.8649C47.9816 38.8777 49.2994 40.4032 49.2994 42.0113C49.3012 42.7649 49.2791 43.5083 49.2543 44.0955ZM49.0733 37.8596C48.3574 37.0656 31.4976 18.4552 25.394 18.4552C19.2923 18.4552 2.43152 37.0656 1.71658 37.8586L1.71566 37.8596C1.64582 37.9377 0 39.8187 0 42.0123C0 43.7197 0.11303 45.4381 0.114868 45.4546C0.118543 45.5336 0.158058 46.2596 0.561473 46.4572C0.626718 46.4893 0.697477 46.5059 0.770073 46.5059C0.919861 46.5059 1.08711 46.4388 1.26814 46.3065C1.45009 46.1457 18.626 30.9749 25.394 30.9749C32.1629 30.9749 49.3398 46.1457 49.5116 46.2991C49.6991 46.437 49.8682 46.5059 50.0198 46.5059C50.0933 46.5059 50.1623 46.4893 50.2284 46.4581C50.6309 46.2614 50.6704 45.5346 50.6741 45.4528C50.675 45.4399 50.7881 43.7215 50.7881 42.0141C50.7881 39.8187 49.1422 37.9377 49.0733 37.8596ZM49.2304 26.3948C44.8011 22.5978 31.641 11.791 25.3949 11.791C19.1452 11.791 5.99517 22.5913 1.56312 26.3912C1.53647 25.4943 1.51166 24.9475 1.51166 24.149C1.51166 24.149 1.40322 22.8284 2.5712 21.5079C12.1796 12.8019 22.2531 8.54257 22.5618 8.41208C25.5659 7.14211 25.3968 7.38103 25.394 2.28642C25.394 2.28642 25.5273 2.27815 25.6137 2.28734C29.8435 2.67054 41.2173 13.7089 47.9476 21.1707C47.9595 21.1835 49.2764 22.7071 49.2764 24.3144C49.2773 25.0661 49.2543 25.8086 49.2304 26.3948ZM49.0494 20.1653C48.3336 19.3723 31.4912 0.780273 25.394 0.780273C19.2987 0.780273 2.45449 19.3723 1.74048 20.1644L1.73956 20.1653C1.66972 20.2435 0.0248121 22.1227 0.0248121 24.3144C0.0248121 26.0199 0.138761 27.7365 0.13968 27.753C0.143356 27.8321 0.18287 28.5571 0.585366 28.7547C0.650611 28.7869 0.721369 28.8025 0.793966 28.8025C0.943753 28.8025 1.11008 28.7354 1.29111 28.6031C1.47398 28.4422 18.6325 13.2871 25.394 13.2871C32.1565 13.2871 49.3159 28.4422 49.4877 28.5957C49.6743 28.7336 49.8434 28.8016 49.995 28.8016C50.0685 28.8016 50.1374 28.7859 50.2036 28.7538C50.6052 28.5571 50.6456 27.8312 50.6484 27.7494C50.6493 27.7365 50.7623 26.0199 50.7623 24.3144C50.7632 22.1227 49.1193 20.2435 49.0494 20.1653Z" fill="black"/>
</svg>
