<svg width="55" height="30" viewBox="0 0 55 30" fill="none" xmlns="http://www.w3.org/2000/svg">
<path d="M39.1135 21.086L27.4292 5.37931L15.745 21.086C11.7992 20.7029 5.01848 18.1362 5.01848 13.5774C5.01848 7.83108 14.9788 2.46782 27.4675 2.46782C40.6075 2.46782 49.9166 7.83108 49.9166 13.5774C49.9166 18.1745 43.0976 20.7412 39.1901 21.0477M27.4292 0.782227C11.2628 0.782227 0 7.10321 0 15.263C0 19.0939 2.45177 23.3845 7.6618 25.9895C12.527 28.403 19.346 29.2458 20.3038 29.3607L27.4292 8.55895L34.5547 29.3607C38.913 28.8725 43.174 27.7362 47.1967 25.9895C52.4067 23.3845 54.8585 19.0939 54.8585 15.263C54.8202 7.0649 43.5956 0.782227 27.4292 0.782227Z" fill="#231F20"/>
</svg>
