<svg width="46" height="47" viewBox="0 0 46 47" fill="none" xmlns="http://www.w3.org/2000/svg">
<path d="M40.3435 12.2812C41.2752 14.4684 41.7267 16.9338 41.7267 19.8183C41.7267 21.3768 41.5972 23.0382 41.3343 24.8977C40.7894 28.7272 39.3376 32.7282 38.0001 35.365C37.7829 35.7899 37.6095 36.0719 37.2609 36.3805C36.6512 36.9178 36.1139 37.0512 35.9158 36.9349C35.7557 36.8397 35.6662 36.3596 35.6986 35.6527C35.7253 35.0507 35.8682 34.6048 36.0873 33.8923C37.1117 30.5161 37.876 27.0665 38.3735 23.5735C39.1071 18.498 39.0785 13.9331 37.9906 11.1514C37.8806 10.8659 37.7401 10.5931 37.5714 10.3379C37.4533 10.1664 37.3695 10.0788 37.3695 10.0788C35.1194 7.82487 29.0436 6.69507 22.9659 6.69507C16.8882 6.69507 10.8143 7.82487 8.56615 10.0788C8.56615 10.0788 8.48042 10.1645 8.3642 10.3379C8.1936 10.5916 8.05235 10.8639 7.94314 11.1495C6.85335 13.9311 6.82667 18.498 7.56019 23.5735C8.05555 27.0163 8.84051 30.661 9.89791 34.0599C10.0808 34.6448 10.1989 35.043 10.2275 35.6603C10.258 36.3634 10.1704 36.8416 10.0103 36.9368C9.81217 37.0512 9.26918 36.9178 8.6576 36.3748C8.2194 35.9842 8.0003 35.6032 7.72404 35.0392C6.42848 32.4005 5.07005 28.5672 4.54801 24.8977C4.29733 23.216 4.16618 21.5186 4.15554 19.8183C4.15554 16.9338 4.60898 14.4703 5.53874 12.285C6.23796 10.6465 7.41158 9.27476 8.93386 8.31642C12.6751 5.95024 16.95 4.56019 21.3674 4.27352C21.8844 4.24182 22.4022 4.22531 22.9202 4.22398H22.9583C23.4803 4.22398 24.0024 4.24303 24.5168 4.27352C28.8645 4.53644 33.1646 5.93679 36.9484 8.31642C38.4582 9.26143 39.6429 10.6437 40.3435 12.2812ZM31.2689 39.9566C31.1013 39.9928 30.5811 40.1148 30.0648 40.2558C29.6018 40.3834 29.1446 40.4844 28.9274 40.5282C26.9708 40.8966 24.9836 41.0784 22.9926 41.0712H22.9392C20.8111 41.0712 18.7915 40.875 17.0063 40.5282C16.6481 40.4549 16.2923 40.3704 15.9394 40.2748C15.5578 40.1729 15.1741 40.0789 14.7886 39.9928C13.9923 39.8118 13.2721 39.6823 13.2321 39.8347C13.1844 40.0119 13.5407 40.3834 13.9961 40.734C14.1028 40.814 14.3676 41.0007 14.6762 41.1531C14.962 41.2922 15.2859 41.397 15.4117 41.4389C17.5036 42.1153 19.8813 42.3953 22.9202 42.3953H22.9621C25.94 42.3953 28.2853 42.1248 30.3487 41.4751C31.0555 41.2522 31.4728 41.0731 31.9739 40.6749C32.393 40.3434 32.7074 40.0024 32.6616 39.8366C32.6235 39.6937 31.9986 39.7966 31.2689 39.9566ZM26.4906 20.308C26.2143 18.7647 25.8809 17.5797 25.5037 16.7833L25.4999 16.7757H25.4599L24.1605 16.7642H24.1414L24.09 22.4761H26.8069L26.805 22.4571C26.805 22.4475 26.6983 21.4625 26.4906 20.308ZM37.4647 23.5221C36.8513 27.767 35.7881 32.33 34.3021 36.2891C34.0544 36.9559 33.8296 37.2036 33.2923 37.6227C31.906 38.5989 30.3267 39.2667 28.6607 39.5813C26.9517 39.9147 25.0255 40.0995 22.9945 40.0995H22.9392C21.039 40.1076 19.1423 39.934 17.275 39.5813C15.6076 39.2673 14.0269 38.5994 12.6395 37.6227C12.1023 37.2036 11.8794 36.9559 11.6355 36.2891C10.1456 32.33 9.08247 27.767 8.47089 23.5221C7.76024 18.6123 7.80406 14.2874 8.81383 11.7058C8.94148 11.3819 9.07675 11.1495 9.17583 11.0028C9.26347 10.879 9.32444 10.8123 9.32444 10.8123C11.3592 8.77368 17.0597 7.66483 22.9659 7.66483C28.874 7.66483 34.5745 8.77368 36.6074 10.8142C36.6074 10.8142 36.6684 10.8771 36.756 11.0047C36.8551 11.1495 36.9922 11.38 37.118 11.7058C38.1297 14.2874 38.1735 18.6123 37.4647 23.5221ZM16.9644 14.7866L11.8546 14.758L12.3633 32.5472L14.501 32.57L14.4705 24.4728H16.4024V22.3828H14.4705V16.8728H16.9663V14.7847L16.9644 14.7866ZM20.5386 14.7485L17.938 14.7542L18.2828 32.5681H20.4872L20.5386 14.7485ZM27.1079 14.7752H21.9028L22.1086 32.5586H24.1891L24.2062 24.5147H26.9078L26.9116 24.5281C27.1555 26.0465 27.1746 32.4748 27.1746 32.5396V32.5681H29.1998L29.217 31.6555C29.3084 27.0449 29.4647 19.3306 27.1079 14.7752ZM35.3385 14.7504L28.9674 14.7752V16.8271H30.8688V16.8462L30.7888 32.5681H32.9455L33.4695 16.8271H35.3385V14.7504ZM45.6782 23.2363C45.6782 35.8432 35.4433 46.0991 22.8611 46.0991C10.2828 46.0991 0.0478516 35.8432 0.0478516 23.2363C0.0478516 10.6294 10.2828 0.373505 22.863 0.373505C35.4452 0.373505 45.6782 10.6294 45.6782 23.2363ZM45.0495 23.2211C45.04 10.9685 35.0908 1.00223 22.8592 1.00223C10.7496 1.00223 0.876628 10.7818 0.682294 22.8762C0.952318 22.2579 1.40767 21.7386 1.98547 21.3901C3.2334 20.6509 3.57444 18.7514 3.68685 17.6159L3.70971 17.4977C3.63541 18.2503 3.57634 19.0029 3.57634 19.8183C3.57634 21.4035 3.70971 23.0915 3.97644 24.9777C4.7614 30.5029 7.43063 36.4224 9.00055 38.2343L9.08819 38.3296L9.45399 38.7144L9.46733 38.7259C13.2968 41.8638 16.8158 42.9745 22.9202 42.9745H22.9621C29.0646 42.9745 32.5835 41.8638 36.4131 38.7259L36.4302 38.7144L36.7827 38.3391L36.8817 38.2324C38.4555 36.4148 41.1228 30.5029 41.9077 24.9777C42.1745 23.0915 42.3059 21.4035 42.3059 19.8183C42.3059 18.9533 42.2659 18.1227 42.184 17.3244L42.1954 17.3358C42.3097 18.4732 42.9175 21.4149 44.0911 22.2627C44.4912 22.5523 44.8056 22.8667 45.0495 23.2211Z" fill="black"/>
</svg>
