<svg width="46" height="30" viewBox="0 0 46 30" fill="none" xmlns="http://www.w3.org/2000/svg">
<path d="M5.269 25.0491L5.9671 25.1322C6.28291 25.1654 6.31615 25.4314 6.31615 25.5976V26.412H3.10821V25.5976C3.10821 25.4314 3.14145 25.1654 3.45726 25.1322L4.15536 25.0491V24.351H0V25.0491L0.698101 25.1322C1.01391 25.1654 1.04715 25.4314 1.04715 25.5976V28.2903C1.04715 28.4565 1.01391 28.7224 0.698101 28.7557L0 28.8388V29.5369H4.15536V28.8388L3.45726 28.7557C3.14145 28.7224 3.10821 28.4565 3.10821 28.2903V27.4758H6.29953V28.2903C6.29953 28.4565 6.26629 28.7224 5.95048 28.7557L5.25238 28.8388V29.5369H9.40774V28.8388L8.70964 28.7557C8.39383 28.7224 8.36059 28.4565 8.36059 28.2903V25.5976C8.36059 25.4314 8.39383 25.1654 8.70964 25.1322L9.40774 25.0491V24.351H5.25238V25.0491H5.269Z" fill="black"/>
<path d="M32.9437 24.351H27.8243V25.0491L28.4393 25.1156C28.6554 25.1488 28.805 25.2319 28.805 25.5311V28.2736C28.805 28.4399 28.7717 28.7058 28.4559 28.739L27.7578 28.8222V29.5203H32.9437C34.8053 29.5203 36.3345 28.7723 36.3345 26.9273C36.3345 25.0823 34.8053 24.351 32.9437 24.351ZM32.5614 28.5396H30.8162V25.3483H32.5614C33.5919 25.3483 33.941 25.8303 33.941 26.9439C33.941 28.0409 33.5919 28.5396 32.5614 28.5396Z" fill="black"/>
<path d="M45.0441 28.7557C44.7117 28.7224 44.612 28.5063 44.5122 28.3568L42.1187 24.7C41.9525 24.4341 41.8196 24.351 41.5702 24.351H37.6476V25.0491L38.595 25.1488C38.728 25.1654 38.9108 25.3483 38.7612 25.581L36.9827 28.4565C36.9162 28.5728 36.8165 28.7058 36.617 28.739L35.9189 28.8222V29.5203H39.2266V28.8222L38.6615 28.7723C38.4122 28.739 38.2792 28.5728 38.4122 28.3734L38.6781 27.9412H41.8694L42.1021 28.2903C42.3182 28.6061 42.0523 28.739 41.8196 28.7557L41.2378 28.8222V29.5203H45.7256V28.8222L45.0441 28.7557ZM39.2266 27.027L40.2073 25.4314L41.2544 27.027H39.2266Z" fill="black"/>
<path d="M24.1173 25.049L24.8154 25.1321C25.1312 25.1653 25.1644 25.4313 25.1644 25.5975V28.1904L22.4219 24.567C22.3055 24.4007 22.1892 24.3509 21.89 24.3509H18.333V25.049L19.0311 25.1321C19.3469 25.1653 19.3802 25.4313 19.3802 25.5975V28.2902C19.3802 28.4564 19.3469 28.7223 19.0311 28.7556L18.333 28.8387V29.5368H21.6573V28.8387L20.9592 28.7556C20.6434 28.7223 20.6101 28.4564 20.6101 28.2902V25.6972L23.3527 29.3041C23.4857 29.4703 23.5854 29.5202 23.8846 29.5202H23.9178H26.411V25.5809C26.411 25.4147 26.4443 25.1487 26.7601 25.1155L27.4582 25.0324V24.3343H24.1505L24.1173 25.049Z" fill="black"/>
<path d="M13.8625 24.1682C10.4883 24.1682 9.62402 25.6475 9.62402 26.9273C9.62402 28.2072 10.4883 29.7031 13.8625 29.7031C17.2366 29.7031 18.101 28.2238 18.101 26.944C18.101 25.6475 17.2366 24.1682 13.8625 24.1682ZM13.8625 28.7225C12.5494 28.7225 12.0175 28.174 12.0175 26.944C12.0175 25.714 12.566 25.1655 13.8625 25.1655C15.1756 25.1655 15.7075 25.714 15.7075 26.944C15.7075 28.174 15.1756 28.7225 13.8625 28.7225Z" fill="black"/>
<path d="M28.6056 2.49429C28.0405 5.03737 27.8078 6.2175 27.3424 8.04586C26.8936 9.80773 26.5445 11.4533 25.9462 12.2511C25.3478 13.0655 24.5333 13.2317 23.9848 13.2982C23.7023 13.3315 23.4862 13.3481 22.8712 13.3481C22.2562 13.3481 22.0401 13.3315 21.7576 13.2982C21.209 13.2317 20.3946 13.0655 19.7962 12.2511C19.1979 11.4533 18.8488 9.80773 18.4166 8.04586C17.9512 6.20088 17.7185 5.03737 17.1534 2.49429C17.1534 2.49429 16.5883 2.51091 16.339 2.52754C15.9899 2.54416 15.724 2.5774 15.4414 2.61064C15.4414 2.61064 15.7738 7.8464 15.9234 10.0737C16.073 12.4007 16.3556 16.34 16.6049 19.3152C16.6049 19.3152 17.0869 19.3983 17.8848 19.4315C18.7158 19.4814 19.0981 19.4814 19.0981 19.4814C19.4472 18.1683 19.8627 16.3566 20.3447 15.5754C20.7436 14.9438 21.342 14.8773 21.6911 14.8274C22.223 14.7609 22.6884 14.7443 22.8878 14.7443C23.1039 14.7443 23.5527 14.7443 24.0846 14.8274C24.4336 14.8773 25.032 14.9438 25.4309 15.5754C25.9129 16.3566 26.3451 18.1683 26.6775 19.4814C26.6775 19.4814 27.0432 19.4814 27.8743 19.4315C28.6721 19.3817 29.1541 19.3152 29.1541 19.3152C29.4034 16.34 29.686 12.4173 29.8356 10.0737C29.9852 7.86302 30.3176 2.61064 30.3176 2.61064C30.035 2.5774 29.7525 2.54416 29.42 2.52754C29.1707 2.51091 28.6056 2.49429 28.6056 2.49429Z" fill="black"/>
<path d="M35.2042 5.5857C34.8717 2.26141 32.6444 1.56331 30.6997 1.23088C29.7191 1.06467 27.9738 0.931697 26.8602 0.881833C25.8795 0.815347 23.5858 0.782104 22.8877 0.782104C22.1896 0.782104 19.8958 0.815347 18.9151 0.881833C17.8015 0.931697 16.0562 1.06467 15.0756 1.23088C13.1309 1.56331 10.9036 2.26141 10.5712 5.5857C10.4714 6.49988 10.4548 7.68001 10.4714 8.94324C10.5047 11.0542 10.6875 12.467 10.7872 13.4643C10.8537 14.1458 11.1363 16.1736 11.502 17.2207C12.0006 18.6668 12.4494 19.0823 12.9813 19.5145C13.9453 20.2957 15.541 20.545 15.8734 20.6115C17.6685 20.9273 21.292 20.9938 22.9043 20.9938C24.4999 20.9938 28.14 20.9439 29.9352 20.6115C30.2676 20.545 31.8632 20.3123 32.8273 19.5145C33.3592 19.0823 33.8079 18.6668 34.3066 17.2207C34.6723 16.1736 34.9548 14.1291 35.0213 13.4643C35.121 12.4836 35.3039 11.0542 35.3371 8.94324C35.3205 7.66339 35.2873 6.48326 35.2042 5.5857ZM33.9742 11.1705C33.7747 13.8299 33.542 15.4256 33.2096 16.5725C32.9104 17.5864 32.5447 18.2512 32.0128 18.7333C31.1153 19.5477 29.8853 19.7139 29.1539 19.8303C27.5915 20.063 24.9487 20.1461 22.8877 20.1461C20.81 20.1461 18.1838 20.063 16.6214 19.8303C15.89 19.7139 14.66 19.5477 13.7625 18.7333C13.2306 18.2512 12.8649 17.5698 12.5657 16.5725C12.2333 15.4256 11.984 13.8299 11.8012 11.1705C11.6848 9.57485 11.7014 6.9819 11.8843 5.5857C12.1336 3.4914 13.1641 2.44425 15.3748 2.06196C16.4053 1.87912 17.8015 1.74615 19.1146 1.67966C20.1784 1.61318 21.907 1.57993 22.8877 1.57993C23.8517 1.56331 25.597 1.61318 26.6441 1.67966C27.9572 1.74615 29.3534 1.87912 30.3839 2.06196C32.5946 2.46087 33.6251 3.50802 33.8911 5.5857C34.0739 6.96528 34.0905 9.55823 33.9742 11.1705Z" fill="black"/>
</svg>
