<svg width="12" height="10" viewBox="0 0 12 10" fill="none" xmlns="http://www.w3.org/2000/svg">
<path d="M1 7.60156H3.5" stroke="#898989" stroke-miterlimit="10" stroke-linecap="round" stroke-linejoin="round"/>
<path d="M11.0005 2.44922H8.50049" stroke="#898989" stroke-miterlimit="10" stroke-linecap="round" stroke-linejoin="round"/>
<path d="M6.5 7.60156H11" stroke="#898989" stroke-miterlimit="10" stroke-linecap="round" stroke-linejoin="round"/>
<path d="M5.5 2.44922H1" stroke="#898989" stroke-miterlimit="10" stroke-linecap="round" stroke-linejoin="round"/>
<path d="M5 8.95726C4.17158 8.95726 3.5 8.32851 3.5 7.55285C3.5 6.77719 4.17158 6.14844 5 6.14844C5.82845 6.14844 6.5 6.77719 6.5 7.55285C6.5 8.32851 5.82845 8.95726 5 8.95726Z" stroke="#898989" stroke-miterlimit="10" stroke-linecap="round" stroke-linejoin="round"/>
<path d="M6.99951 3.80882C7.82796 3.80882 8.49951 3.18005 8.49951 2.40441C8.49951 1.62878 7.82796 1 6.99951 1C6.17106 1 5.49951 1.62878 5.49951 2.40441C5.49951 3.18005 6.17106 3.80882 6.99951 3.80882Z" stroke="#898989" stroke-miterlimit="10" stroke-linecap="round" stroke-linejoin="round"/>
</svg>
