<svg xmlns="http://www.w3.org/2000/svg" width="24" height="24" x="0" y="0" viewBox="0 0 256 256"><g><path d="M128 256a128 128 0 1 1 128-128 128.145 128.145 0 0 1-128 128zm0-246a118 118 0 1 0 118 118A118.134 118.134 0 0 0 128 10z" fill="#1c1c1c" opacity="1"></path><path d="M128 33.665a5 5 0 0 1-5-5V5a5 5 0 0 1 10 0v23.665a5 5 0 0 1-5 5zM28.7 133H5a5 5 0 0 1 0-10h23.7a5 5 0 1 1 0 10zM128 256a5 5 0 0 1-5-5v-23.665a5 5 0 0 1 10 0V251a5 5 0 0 1-5 5zM251 133h-23.665a5 5 0 0 1 0-10H251a5 5 0 0 1 0 10zM128 133a5 5 0 0 1-3.536-1.465L74.691 81.763a5 5 0 1 1 7.072-7.071l47.731 47.731 30.111-8.069a5 5 0 0 1 2.588 9.661l-32.9 8.815A5.021 5.021 0 0 1 128 133z" fill="#1c1c1c" opacity="1"></path></g></svg>