<svg width="39" height="39" viewBox="0 0 39 39" fill="none" xmlns="http://www.w3.org/2000/svg">
<path d="M14.25 37H24.75C33.5 37 37 33.5 37 24.75V14.25C37 5.5 33.5 2 24.75 2H14.25C5.5 2 2 5.5 2 14.25V24.75C2 33.5 5.5 37 14.25 37Z" stroke="black" stroke-width="3" stroke-linecap="round" stroke-linejoin="round"/>
<path d="M19.5 25.625C22.8827 25.625 25.625 22.8827 25.625 19.5C25.625 16.1173 22.8827 13.375 19.5 13.375C16.1173 13.375 13.375 16.1173 13.375 19.5C13.375 22.8827 16.1173 25.625 19.5 25.625Z" stroke="black" stroke-width="3" stroke-linecap="round" stroke-linejoin="round"/>
<path d="M29.3633 10.75H29.3836" stroke="black" stroke-width="3" stroke-linecap="round" stroke-linejoin="round"/>
</svg>
