<svg viewBox="0 0 24 24" fill="none" xmlns="http://www.w3.org/2000/svg">
<path fill-rule="evenodd" clip-rule="evenodd" d="M7.725 3C8.7207 2.99942 9.70268 3.23418 10.588 3.68538C11.1048 3.94871 11.58 4.28141 12.0006 4.67277C13.1168 3.63481 14.6227 3 16.275 3C19.695 3 22.5 5.72564 22.5 9.12731C22.5 12.0822 20.7377 14.7715 18.7008 16.7901C16.6521 18.8203 14.1471 20.3517 12.31 20.9507C12.1086 21.0164 11.8914 21.0164 11.69 20.9507C9.85292 20.3517 7.34785 18.8203 5.29922 16.7901C3.26229 14.7715 1.5 12.0822 1.5 9.12731C1.5 5.72573 4.30508 3.00013 7.725 3ZM9.67992 5.46732C9.07719 5.16016 8.40679 4.99953 7.72569 5C5.37448 5 3.5 6.86563 3.5 9.12731C3.5 11.2997 4.82521 13.5047 6.70703 15.3695C8.45142 17.0982 10.5219 18.3814 12 18.9399C13.4781 18.3814 15.5486 17.0982 17.293 15.3695C19.1748 13.5047 20.5 11.2997 20.5 9.12731C20.5 6.86563 18.6262 5 16.275 5C14.8389 5 13.5751 5.69856 12.8126 6.76152C12.6246 7.02354 12.3218 7.17884 11.9994 7.17864C11.6769 7.17844 11.3743 7.02275 11.1867 6.76049C10.799 6.21855 10.2826 5.77445 9.67992 5.46732Z" fill="white"/>
</svg>
