<svg viewBox="0 0 24 24" fill="none" xmlns="http://www.w3.org/2000/svg">
<path fill-rule="evenodd" clip-rule="evenodd" d="M11.9998 5.10004C10.6358 5.10004 9.32773 5.65317 8.36326 6.63776C7.39878 7.62234 6.85695 8.95773 6.85695 10.3501C6.85695 12.156 8.13198 14.9676 9.64991 16.5541C10.3815 17.3187 11.1169 17.9537 11.671 18.3981C11.79 18.4935 11.9002 18.5799 11.9998 18.6565C12.0994 18.5799 12.2096 18.4935 12.3286 18.3981C12.8827 17.9537 13.6181 17.3187 14.3497 16.5541C15.8676 14.9676 17.1427 12.156 17.1427 10.3501C17.1427 8.95773 16.6008 7.62234 15.6364 6.63776C14.6719 5.65317 13.3638 5.10004 11.9998 5.10004ZM11.4288 20.8236L11.4265 20.8221C11.3996 20.8036 11.3728 20.7849 11.3461 20.7661C11.296 20.7308 11.2246 20.6798 11.1349 20.6141C10.9556 20.4827 10.7024 20.2919 10.4 20.0494C9.79695 19.5656 8.9895 18.8693 8.17828 18.0214C6.61049 16.3829 4.7998 13.0444 4.7998 10.3501C4.7998 8.40076 5.55837 6.53123 6.90864 5.15281C8.2589 3.77439 10.0902 3 11.9998 3C13.9094 3 15.7407 3.77439 17.091 5.15281C18.4412 6.53123 19.1998 8.40076 19.1998 10.3501C19.1998 13.0444 17.3891 16.3829 15.8213 18.0214C15.0101 18.8693 14.2027 19.5656 13.5996 20.0494C13.2972 20.2919 13.0441 20.4827 12.8647 20.6141C12.775 20.6798 12.7036 20.7308 12.6535 20.7661C12.6261 20.7855 12.5985 20.8046 12.5708 20.8236H11.4288ZM11.4288 20.8236C11.7743 21.0588 12.2253 21.0588 12.5708 20.8236H11.4288ZM9.5998 10.4501C9.5998 9.04179 10.7182 7.90009 12.0978 7.90009C13.4773 7.90009 14.5957 9.04179 14.5957 10.4501C14.5957 11.8585 13.4773 13.0002 12.0978 13.0002C10.7182 13.0002 9.5998 11.8585 9.5998 10.4501Z" fill="white"/>
</svg>
