<svg xmlns="http://www.w3.org/2000/svg" version="1.1" xmlns:xlink="http://www.w3.org/1999/xlink" width="512" height="512" x="0" y="0" viewBox="0 0 50 50" style="enable-background:new 0 0 512 512" xml:space="preserve" class=""><g><path fill="#000000" d="M39.583 8.333H10.417a6.25 6.25 0 0 0-6.25 6.25v20.834a6.25 6.25 0 0 0 6.25 6.25h29.166a6.25 6.25 0 0 0 6.25-6.25V14.583a6.25 6.25 0 0 0-6.25-6.25zM10.417 12.5h29.166a2.083 2.083 0 0 1 2.084 2.083L25 24.75 8.333 14.583a2.083 2.083 0 0 1 2.084-2.083zm31.25 22.917a2.083 2.083 0 0 1-2.084 2.083H10.417a2.083 2.083 0 0 1-2.084-2.083V19.333l15.584 9.521a2.083 2.083 0 0 0 2.083 0l15.667-9.52z" opacity="1" data-original="#000000" class=""></path></g></svg>