<svg viewBox="0 0 24 24" fill="none" xmlns="http://www.w3.org/2000/svg">
<path d="M18.9214 17.7406C19.8453 16.6299 20.4879 15.3133 20.7948 13.902C21.1017 12.4907 21.0639 11.0263 20.6846 9.63273C20.3053 8.23913 19.5956 6.95732 18.6156 5.89572C17.6357 4.83412 16.4142 4.02397 15.0546 3.5338C13.695 3.04363 12.2373 2.88786 10.8047 3.07966C9.3721 3.27147 8.00682 3.80522 6.82434 4.63574C5.64186 5.46627 4.67696 6.56915 4.01129 7.85108C3.34561 9.13301 2.99874 10.5563 3 12.0005C3.00049 14.1 3.74094 16.1322 5.09143 17.7406L5.07856 17.7515C5.12359 17.8055 5.17506 17.8518 5.22138 17.9052C5.27927 17.9714 5.34168 18.0337 5.4015 18.098C5.58163 18.2934 5.76691 18.4811 5.96119 18.6572C6.02038 18.7112 6.08149 18.7613 6.14132 18.8128C6.34718 18.9902 6.55883 19.1586 6.7782 19.3154C6.80651 19.3347 6.83224 19.3598 6.86055 19.3797V19.372C8.36726 20.4314 10.1647 21 12.0071 21C13.8495 21 15.6469 20.4314 17.1536 19.372V19.3797C17.1819 19.3598 17.207 19.3347 17.236 19.3154C17.4547 19.1579 17.667 18.9902 17.8728 18.8128C17.9327 18.7613 17.9938 18.7106 18.053 18.6572C18.2473 18.4804 18.4325 18.2934 18.6127 18.098C18.6725 18.0337 18.7342 17.9714 18.7928 17.9052C18.8385 17.8518 18.8906 17.8055 18.9356 17.7509L18.9214 17.7406ZM12.0064 6.85818C12.579 6.85818 13.1387 7.02783 13.6148 7.34567C14.0908 7.6635 14.4619 8.11526 14.681 8.6438C14.9001 9.17235 14.9574 9.75394 14.8457 10.315C14.734 10.8761 14.4583 11.3915 14.0535 11.7961C13.6486 12.2006 13.1328 12.4761 12.5712 12.5877C12.0096 12.6993 11.4276 12.642 10.8986 12.4231C10.3696 12.2042 9.91749 11.8334 9.59939 11.3577C9.2813 10.8821 9.11151 10.3228 9.11151 9.75073C9.11151 8.98358 9.41651 8.24785 9.95942 7.70539C10.5023 7.16293 11.2387 6.85818 12.0064 6.85818ZM6.86441 17.7406C6.87557 16.8966 7.21884 16.0909 7.81996 15.4979C8.42108 14.9048 9.23172 14.5721 10.0765 14.5716H13.9364C14.7812 14.5721 15.5918 14.9048 16.1929 15.4979C16.794 16.0909 17.1373 16.8966 17.1485 17.7406C15.7376 19.011 13.9057 19.714 12.0064 19.714C10.1072 19.714 8.2753 19.011 6.86441 17.7406Z" fill="white"/>
</svg>
