<svg width="35" height="35" viewBox="0 0 35 35" fill="none" xmlns="http://www.w3.org/2000/svg">
<mask id="path-1-inside-1_275_3813" fill="white">
<path d="M17.5 0C7.84403 0 0 7.84403 0 17.5C0 27.156 7.84403 35 17.5 35C27.156 35 35 27.156 35 17.5C35 7.84403 27.156 0 17.5 0ZM17.5 1.52174C26.3336 1.52174 33.4783 8.66644 33.4783 17.5C33.4783 26.3336 26.3336 33.4783 17.5 33.4783C8.66644 33.4783 1.52174 26.3336 1.52174 17.5C1.52174 8.66644 8.66644 1.52174 17.5 1.52174ZM9.89279 12.1739L6.82256 12.1754C6.82256 12.1754 6.64688 12.1655 6.4347 12.1932C6.22252 12.221 5.90906 12.2338 5.58764 12.5974L5.58615 12.5989L5.58466 12.6004C5.29876 12.9274 5.30967 13.3079 5.34541 13.5173C5.38101 13.726 5.46132 13.8829 5.46132 13.8829V13.8844C5.49084 13.9568 7.72007 19.4189 10.5303 22.3535C12.5126 24.4249 14.6326 25.1087 16.5207 25.1087H17.5C17.8222 25.1087 18.11 25.094 18.4288 24.9289C18.7476 24.7637 19.0217 24.3079 19.0217 23.954C19.0217 23.5727 19.0311 23.203 19.0797 22.997C19.1251 22.8046 19.1076 22.8518 19.1258 22.8514C19.144 22.8553 19.1772 22.863 19.2402 22.8915C19.3759 22.9528 19.5857 23.0898 19.8183 23.2704C20.2828 23.631 20.833 24.1542 21.45 24.5588C22.3337 25.1445 23.2927 25.1087 23.2927 25.1087H26.4551L26.4893 25.1057C26.4893 25.1057 26.9745 25.0947 27.473 24.7892C27.7223 24.6364 28.0185 24.3562 28.118 23.9362C28.2175 23.5161 28.0905 23.0755 27.846 22.6879C27.7568 22.5457 27.3233 21.9175 25.5932 20.3815C25.1462 19.9851 24.8414 19.7045 24.7208 19.5552C24.678 19.5023 24.6745 19.5074 24.6658 19.5047C24.6759 19.4787 24.7759 19.2682 25.0433 18.9207C25.322 18.5585 25.7455 18.0539 26.2901 17.3603C26.9842 16.476 27.4712 15.6258 27.7777 14.9083C27.9309 14.5496 28.0395 14.224 28.1046 13.929C28.1697 13.6339 28.2216 13.3886 28.1254 13.0388C28.0537 12.7784 27.8588 12.5452 27.6677 12.4221C27.4767 12.299 27.2985 12.2526 27.1387 12.223C26.8189 12.1636 26.5368 12.1739 26.2738 12.1739C25.7231 12.1739 23.2749 12.1932 23.0728 12.1932C22.8356 12.1932 22.4573 12.292 22.2822 12.3924C21.8475 12.6413 21.7115 12.9823 21.7115 12.9823L21.6699 13.0552L21.6461 13.1369C21.6461 13.1369 21.0887 14.9403 20.5152 15.8698H20.5138C19.8395 16.9648 19.3365 17.3991 19.1154 17.5223C19.0919 17.5354 19.1049 17.5284 19.0886 17.5372C19.0713 17.4868 19.0495 17.4174 19.0351 17.289C19.0028 16.9997 19.0217 16.5923 19.0217 16.1982C19.0217 15.1068 19.1037 14.4262 19.0128 13.7818C18.9674 13.4597 18.8517 13.1008 18.5878 12.8248C18.3239 12.5488 17.983 12.4129 17.6427 12.3344H17.6412C17.2864 12.2527 16.9041 12.1826 15.9857 12.1739C14.8155 12.163 14.0533 12.1993 13.3761 12.5008L13.3687 12.5053L13.3628 12.5083C13.0952 12.634 12.8843 12.778 12.6985 12.9704C12.6056 13.0667 12.4954 13.1367 12.4191 13.443C12.381 13.5962 12.3768 13.8859 12.5499 14.1207C12.723 14.3554 12.9656 14.4262 13.1087 14.4446C13.0823 14.4412 13.2212 14.4718 13.3286 14.5249C13.436 14.578 13.5292 14.6544 13.553 14.6854V14.6869C13.5431 14.674 13.6462 14.9303 13.6734 15.1639C13.7005 15.3975 13.6957 15.5859 13.6957 15.5859L13.6942 15.632L13.6986 15.6781C13.6986 15.6781 13.7453 16.1951 13.7209 16.7287C13.7087 16.9956 13.675 17.2641 13.6303 17.4287C13.6279 17.4374 13.6268 17.4343 13.6243 17.442C13.4338 17.309 12.9946 16.8454 12.3894 15.846C11.83 14.9215 11.306 13.2587 11.306 13.2587L11.2942 13.2216L11.2808 13.1859C11.2808 13.1859 11.1831 12.8145 10.7517 12.5113C10.3474 12.2266 9.96264 12.1873 9.96264 12.1873L9.89279 12.1739ZM9.71595 13.6957C9.75947 13.7116 9.85045 13.7443 9.86753 13.7521L9.84969 13.6986L9.87347 13.7536L9.87644 13.7551V13.7566H9.87793C9.83969 13.7298 9.87211 13.7564 9.87644 13.7625C9.89746 13.8342 10.362 15.4346 11.0876 16.6336C11.7485 17.7252 12.2369 18.3367 12.7698 18.7022C13.3023 19.0674 14.0183 19.0298 14.3822 18.8404C14.8686 18.5879 15.0045 18.1727 15.0985 17.8269C15.1925 17.4812 15.226 17.1303 15.2412 16.7986C15.2701 16.1655 15.2206 15.6477 15.2159 15.5963C15.2167 15.5677 15.2234 15.3204 15.1847 14.987C15.1456 14.6511 15.0756 14.2337 14.7775 13.8145C15.1114 13.7649 15.2968 13.6894 15.9708 13.6957C16.8303 13.7037 16.9611 13.7396 17.2994 13.8175C17.4836 13.86 17.5041 13.8952 17.4866 13.877C17.4692 13.8587 17.4851 13.8465 17.5059 13.9944C17.5477 14.29 17.5 15.0481 17.5 16.1982C17.5 16.5224 17.4687 16.9796 17.5223 17.4584C17.5758 17.9369 17.7254 18.5491 18.304 18.9073C18.6336 19.1113 19.2634 19.1815 19.8569 18.8508C20.4505 18.5202 21.0595 17.8859 21.8096 16.6678C22.5505 15.4668 22.9936 13.8878 23.0416 13.7209C23.0416 13.7209 23.05 13.7154 23.0549 13.712C23.0684 13.7126 23.0513 13.715 23.0728 13.715C23.3546 13.715 25.7593 13.6957 26.2738 13.6957C26.4153 13.6957 26.4775 13.7033 26.5829 13.7075C26.5403 13.8718 26.483 14.0631 26.3778 14.3094C26.1305 14.8883 25.7062 15.6391 25.0923 16.4211C24.5633 17.0948 24.1524 17.5835 23.8381 17.9919C23.5238 18.4003 23.2769 18.7224 23.1738 19.1882C23.0707 19.654 23.2675 20.1793 23.5364 20.5123C23.8054 20.8453 24.1382 21.1257 24.5826 21.5198C26.2566 23.006 26.5313 23.4558 26.5576 23.4978V23.4993C26.5859 23.5441 26.5676 23.499 26.5784 23.5216C26.4835 23.5512 26.3705 23.5846 26.36 23.587H23.2808H23.2764C23.2764 23.587 22.71 23.5684 22.2896 23.2897L22.2881 23.2883H22.2866C21.8419 22.9969 21.3043 22.4974 20.7515 22.0682C20.4751 21.8536 20.1937 21.6525 19.8673 21.505C19.5409 21.3574 19.1272 21.2528 18.6918 21.3831C18.0616 21.5717 17.7119 22.1715 17.5996 22.6478C17.5189 22.9896 17.5309 23.287 17.5282 23.5855C17.5065 23.5866 17.5253 23.587 17.5 23.587H16.5207C14.9742 23.587 13.3654 23.1149 11.63 21.3014C9.3739 18.9454 7.361 14.3893 7.05885 13.6971L9.71595 13.6957ZM22.9881 13.7016C22.9743 13.7047 23.0138 13.7077 23.046 13.7105C23.0417 13.7129 23.0464 13.7084 23.0401 13.712C23.0394 13.6993 23.0066 13.6975 22.9881 13.7016Z"/>
</mask>
<path d="M17.5 0C7.84403 0 0 7.84403 0 17.5C0 27.156 7.84403 35 17.5 35C27.156 35 35 27.156 35 17.5C35 7.84403 27.156 0 17.5 0ZM17.5 1.52174C26.3336 1.52174 33.4783 8.66644 33.4783 17.5C33.4783 26.3336 26.3336 33.4783 17.5 33.4783C8.66644 33.4783 1.52174 26.3336 1.52174 17.5C1.52174 8.66644 8.66644 1.52174 17.5 1.52174ZM9.89279 12.1739L6.82256 12.1754C6.82256 12.1754 6.64688 12.1655 6.4347 12.1932C6.22252 12.221 5.90906 12.2338 5.58764 12.5974L5.58615 12.5989L5.58466 12.6004C5.29876 12.9274 5.30967 13.3079 5.34541 13.5173C5.38101 13.726 5.46132 13.8829 5.46132 13.8829V13.8844C5.49084 13.9568 7.72007 19.4189 10.5303 22.3535C12.5126 24.4249 14.6326 25.1087 16.5207 25.1087H17.5C17.8222 25.1087 18.11 25.094 18.4288 24.9289C18.7476 24.7637 19.0217 24.3079 19.0217 23.954C19.0217 23.5727 19.0311 23.203 19.0797 22.997C19.1251 22.8046 19.1076 22.8518 19.1258 22.8514C19.144 22.8553 19.1772 22.863 19.2402 22.8915C19.3759 22.9528 19.5857 23.0898 19.8183 23.2704C20.2828 23.631 20.833 24.1542 21.45 24.5588C22.3337 25.1445 23.2927 25.1087 23.2927 25.1087H26.4551L26.4893 25.1057C26.4893 25.1057 26.9745 25.0947 27.473 24.7892C27.7223 24.6364 28.0185 24.3562 28.118 23.9362C28.2175 23.5161 28.0905 23.0755 27.846 22.6879C27.7568 22.5457 27.3233 21.9175 25.5932 20.3815C25.1462 19.9851 24.8414 19.7045 24.7208 19.5552C24.678 19.5023 24.6745 19.5074 24.6658 19.5047C24.6759 19.4787 24.7759 19.2682 25.0433 18.9207C25.322 18.5585 25.7455 18.0539 26.2901 17.3603C26.9842 16.476 27.4712 15.6258 27.7777 14.9083C27.9309 14.5496 28.0395 14.224 28.1046 13.929C28.1697 13.6339 28.2216 13.3886 28.1254 13.0388C28.0537 12.7784 27.8588 12.5452 27.6677 12.4221C27.4767 12.299 27.2985 12.2526 27.1387 12.223C26.8189 12.1636 26.5368 12.1739 26.2738 12.1739C25.7231 12.1739 23.2749 12.1932 23.0728 12.1932C22.8356 12.1932 22.4573 12.292 22.2822 12.3924C21.8475 12.6413 21.7115 12.9823 21.7115 12.9823L21.6699 13.0552L21.6461 13.1369C21.6461 13.1369 21.0887 14.9403 20.5152 15.8698H20.5138C19.8395 16.9648 19.3365 17.3991 19.1154 17.5223C19.0919 17.5354 19.1049 17.5284 19.0886 17.5372C19.0713 17.4868 19.0495 17.4174 19.0351 17.289C19.0028 16.9997 19.0217 16.5923 19.0217 16.1982C19.0217 15.1068 19.1037 14.4262 19.0128 13.7818C18.9674 13.4597 18.8517 13.1008 18.5878 12.8248C18.3239 12.5488 17.983 12.4129 17.6427 12.3344H17.6412C17.2864 12.2527 16.9041 12.1826 15.9857 12.1739C14.8155 12.163 14.0533 12.1993 13.3761 12.5008L13.3687 12.5053L13.3628 12.5083C13.0952 12.634 12.8843 12.778 12.6985 12.9704C12.6056 13.0667 12.4954 13.1367 12.4191 13.443C12.381 13.5962 12.3768 13.8859 12.5499 14.1207C12.723 14.3554 12.9656 14.4262 13.1087 14.4446C13.0823 14.4412 13.2212 14.4718 13.3286 14.5249C13.436 14.578 13.5292 14.6544 13.553 14.6854V14.6869C13.5431 14.674 13.6462 14.9303 13.6734 15.1639C13.7005 15.3975 13.6957 15.5859 13.6957 15.5859L13.6942 15.632L13.6986 15.6781C13.6986 15.6781 13.7453 16.1951 13.7209 16.7287C13.7087 16.9956 13.675 17.2641 13.6303 17.4287C13.6279 17.4374 13.6268 17.4343 13.6243 17.442C13.4338 17.309 12.9946 16.8454 12.3894 15.846C11.83 14.9215 11.306 13.2587 11.306 13.2587L11.2942 13.2216L11.2808 13.1859C11.2808 13.1859 11.1831 12.8145 10.7517 12.5113C10.3474 12.2266 9.96264 12.1873 9.96264 12.1873L9.89279 12.1739ZM9.71595 13.6957C9.75947 13.7116 9.85045 13.7443 9.86753 13.7521L9.84969 13.6986L9.87347 13.7536L9.87644 13.7551V13.7566H9.87793C9.83969 13.7298 9.87211 13.7564 9.87644 13.7625C9.89746 13.8342 10.362 15.4346 11.0876 16.6336C11.7485 17.7252 12.2369 18.3367 12.7698 18.7022C13.3023 19.0674 14.0183 19.0298 14.3822 18.8404C14.8686 18.5879 15.0045 18.1727 15.0985 17.8269C15.1925 17.4812 15.226 17.1303 15.2412 16.7986C15.2701 16.1655 15.2206 15.6477 15.2159 15.5963C15.2167 15.5677 15.2234 15.3204 15.1847 14.987C15.1456 14.6511 15.0756 14.2337 14.7775 13.8145C15.1114 13.7649 15.2968 13.6894 15.9708 13.6957C16.8303 13.7037 16.9611 13.7396 17.2994 13.8175C17.4836 13.86 17.5041 13.8952 17.4866 13.877C17.4692 13.8587 17.4851 13.8465 17.5059 13.9944C17.5477 14.29 17.5 15.0481 17.5 16.1982C17.5 16.5224 17.4687 16.9796 17.5223 17.4584C17.5758 17.9369 17.7254 18.5491 18.304 18.9073C18.6336 19.1113 19.2634 19.1815 19.8569 18.8508C20.4505 18.5202 21.0595 17.8859 21.8096 16.6678C22.5505 15.4668 22.9936 13.8878 23.0416 13.7209C23.0416 13.7209 23.05 13.7154 23.0549 13.712C23.0684 13.7126 23.0513 13.715 23.0728 13.715C23.3546 13.715 25.7593 13.6957 26.2738 13.6957C26.4153 13.6957 26.4775 13.7033 26.5829 13.7075C26.5403 13.8718 26.483 14.0631 26.3778 14.3094C26.1305 14.8883 25.7062 15.6391 25.0923 16.4211C24.5633 17.0948 24.1524 17.5835 23.8381 17.9919C23.5238 18.4003 23.2769 18.7224 23.1738 19.1882C23.0707 19.654 23.2675 20.1793 23.5364 20.5123C23.8054 20.8453 24.1382 21.1257 24.5826 21.5198C26.2566 23.006 26.5313 23.4558 26.5576 23.4978V23.4993C26.5859 23.5441 26.5676 23.499 26.5784 23.5216C26.4835 23.5512 26.3705 23.5846 26.36 23.587H23.2808H23.2764C23.2764 23.587 22.71 23.5684 22.2896 23.2897L22.2881 23.2883H22.2866C21.8419 22.9969 21.3043 22.4974 20.7515 22.0682C20.4751 21.8536 20.1937 21.6525 19.8673 21.505C19.5409 21.3574 19.1272 21.2528 18.6918 21.3831C18.0616 21.5717 17.7119 22.1715 17.5996 22.6478C17.5189 22.9896 17.5309 23.287 17.5282 23.5855C17.5065 23.5866 17.5253 23.587 17.5 23.587H16.5207C14.9742 23.587 13.3654 23.1149 11.63 21.3014C9.3739 18.9454 7.361 14.3893 7.05885 13.6971L9.71595 13.6957ZM22.9881 13.7016C22.9743 13.7047 23.0138 13.7077 23.046 13.7105C23.0417 13.7129 23.0464 13.7084 23.0401 13.712C23.0394 13.6993 23.0066 13.6975 22.9881 13.7016Z" fill="#B4D0DF" stroke="black" stroke-width="2" mask="url(#path-1-inside-1_275_3813)"/>
</svg>
