<svg viewBox="0 0 24 24" fill="none" xmlns="http://www.w3.org/2000/svg">
<path d="M18.0224 5.97171L18.0242 5.97348C19.6214 7.56268 20.5 9.67613 20.5 11.928C20.5 16.5635 16.7011 20.347 12.0362 20.347C10.6185 20.347 9.22599 19.9901 7.98703 19.3184L7.81335 19.2243L7.62223 19.2743L3.71076 20.2973L4.74859 16.506L4.80362 16.305L4.69956 16.1244C3.96492 14.8495 3.57236 13.4054 3.57236 11.919C3.57236 7.28355 7.37126 3.50005 12.0362 3.50006L12.0379 3.50005C13.1506 3.49619 14.2528 3.71282 15.2803 4.13723C16.3079 4.56164 17.24 5.18529 18.0224 5.97171ZM7.98089 18.7293L7.98088 18.7293L7.98388 18.7311C9.20891 19.4509 10.6078 19.835 12.0362 19.835C16.4145 19.835 19.9895 16.2944 19.9714 11.9279C19.975 10.8875 19.7712 9.8567 19.3717 8.89529C18.9722 7.9337 18.385 7.0607 17.6443 6.32678C16.1482 4.82904 14.1487 4.00305 12.0271 4.00305C7.64683 4.00305 4.07387 7.55453 4.07387 11.919L4.07387 11.9194C4.07497 13.408 4.4966 14.8661 5.2904 16.1273L5.29036 16.1274L5.29404 16.133L5.35297 16.2239L4.66154 18.7437L4.43238 19.5788L5.27022 19.3597L7.88952 18.6748L7.98089 18.7293ZM16.0684 14.3162C16.0747 14.3191 16.0807 14.3219 16.0864 14.3245C16.0857 14.3395 16.0847 14.3558 16.0832 14.3734C16.0711 14.5165 16.0334 14.7139 15.9533 14.934L15.9532 14.934L15.9507 14.9413C15.9176 15.0367 15.7714 15.2091 15.4934 15.3869C15.229 15.556 14.9654 15.6537 14.842 15.672C14.4878 15.7211 14.0852 15.739 13.6541 15.6009L13.6541 15.6008L13.6469 15.5986C13.3319 15.5029 12.9361 15.3744 12.4269 15.1511L12.4234 15.1496C10.4226 14.2906 9.05556 12.3121 8.83157 11.9879C8.82116 11.9729 8.81322 11.9614 8.8078 11.9537L8.80362 11.9478L8.79928 11.9421L8.79761 11.9399C8.74583 11.8712 8.54059 11.5989 8.34783 11.2214C8.14927 10.8325 7.98643 10.3748 7.98643 9.93903C7.98643 9.1226 8.36399 8.70898 8.58383 8.46816C8.60183 8.44844 8.61877 8.42988 8.63436 8.41236C8.73163 8.30889 8.82348 8.29704 8.86131 8.29704H9.28216C9.28942 8.29737 9.29647 8.29762 9.30311 8.29781C9.31312 8.31593 9.32547 8.3408 9.33955 8.37417C9.51102 8.80055 9.95113 9.87113 10.0363 10.0513C9.97808 10.1671 9.95686 10.2067 9.90259 10.2697C9.85146 10.329 9.80695 10.3827 9.76696 10.431C9.69993 10.5118 9.64559 10.5773 9.59407 10.6286C9.59158 10.6311 9.58882 10.6338 9.58581 10.6368C9.53224 10.6896 9.4014 10.8187 9.33513 11.0022C9.24869 11.2415 9.29448 11.4793 9.41151 11.6873L9.41519 11.6938L9.41906 11.7002C9.55824 11.931 10.0336 12.7161 10.7632 13.3637C11.5578 14.0702 12.2707 14.373 12.5715 14.5008C12.6145 14.519 12.6491 14.5337 12.6743 14.5455C12.8198 14.6198 13.0144 14.6933 13.2343 14.668C13.4782 14.6398 13.6494 14.5042 13.7637 14.3683C13.881 14.2345 14.2428 13.807 14.4402 13.5391C14.6221 13.6188 15.1873 13.8928 15.5749 14.0806C15.7223 14.1521 15.844 14.2111 15.9091 14.2422C15.9577 14.2654 16.0034 14.2863 16.0414 14.3038C16.0509 14.3082 16.0599 14.3123 16.0684 14.3162ZM16.1849 14.3742C16.1849 14.3742 16.1843 14.3739 16.1834 14.3731L16.1849 14.3742Z" fill="black" stroke="#333237"/>
</svg>
